<svg version="1.1" id="Layer_1" xmlns="http://www.w3.org/2000/svg" xmlns:xlink="http://www.w3.org/1999/xlink" x="0px" y="0px"
	 width="100%" viewBox="0 0 302 302" enable-background="new 0 0 302 302" xml:space="preserve">
<path fill="#000001" opacity="1.000000" stroke="none" 
	d="
M168.000000,303.000000 
	C112.000008,303.000000 56.500019,303.000000 1.000022,303.000000 
	C1.000015,202.333359 1.000015,101.666725 1.000007,1.000063 
	C101.666618,1.000042 202.333237,1.000042 302.999878,1.000021 
	C302.999939,101.666603 302.999939,202.333206 302.999969,302.999908 
	C258.166656,303.000000 213.333328,303.000000 168.000000,303.000000 
M182.196426,52.969986 
	C182.196426,52.969986 182.213684,52.982754 181.447021,52.524212 
	C181.184021,52.384560 180.921021,52.244904 180.588623,51.732189 
	C180.393127,51.488014 180.166565,51.454597 179.777588,51.324570 
	C179.777588,51.324570 179.465714,51.204323 178.979309,50.623596 
	C178.003326,50.461708 177.027649,50.160770 176.051315,50.158661 
	C159.843964,50.123661 143.636459,50.101528 127.429306,50.163811 
	C126.029991,50.169189 124.633041,50.788395 123.096169,51.088272 
	C123.096169,51.088272 123.068810,51.228603 122.510521,51.222816 
	C122.081795,51.520679 121.653069,51.818542 121.096771,52.092541 
	C121.096771,52.092541 121.080795,52.221340 120.602821,52.264633 
	C120.296036,52.430634 120.121094,52.686726 119.553322,53.319431 
	C119.064438,53.943417 118.575554,54.567402 117.589783,55.429070 
	C117.500854,55.958088 117.411926,56.487103 117.091515,57.497692 
	C117.068794,57.674343 117.046074,57.850994 116.573654,58.377560 
	C116.708420,59.259624 116.843185,60.141685 117.010872,61.797592 
	C117.195374,62.541882 117.379875,63.286175 117.424774,64.410820 
	C117.526863,64.700462 117.731041,64.857712 118.297791,65.480202 
	C119.560013,66.643936 120.822235,67.807671 122.243187,69.349480 
	C122.243187,69.349480 122.581650,69.577477 122.581650,69.577477 
	C122.581650,69.577477 122.968170,69.447021 123.551872,69.757751 
	C123.763557,69.819183 123.975243,69.880623 124.332535,70.399666 
	C124.547417,70.646912 124.806320,70.832893 125.092896,71.900108 
	C125.191368,87.651588 125.289848,103.403076 125.281052,119.648056 
	C125.227058,119.807503 125.173058,119.966942 124.441620,120.402512 
	C124.308723,121.611244 124.175827,122.819969 123.676903,124.599358 
	C108.855927,150.319931 93.980209,176.009216 79.246391,201.779633 
	C74.656738,209.807220 70.450981,218.054291 65.667496,226.623734 
	C65.608902,227.386490 65.550301,228.149246 65.232971,229.587708 
	C65.266190,230.065079 65.299400,230.542465 65.138161,231.827957 
	C66.758545,235.886475 68.378929,239.944977 70.166557,244.674637 
	C74.460342,246.318604 78.754128,247.962570 83.868111,249.831787 
	C85.564323,249.789734 87.260544,249.747681 89.642235,249.880905 
	C90.112640,249.861008 90.583046,249.841110 91.508102,250.301788 
	C92.997307,250.180771 94.486511,250.059753 96.643051,250.115952 
	C97.096092,250.059418 97.549141,250.002884 98.309364,250.299255 
	C98.872040,250.183945 99.434708,250.068649 100.916809,250.152634 
	C108.609741,250.101501 116.302666,250.050369 124.347427,250.258102 
	C124.899712,250.171799 125.452003,250.085495 126.804695,250.215775 
	C149.670181,250.220764 172.535675,250.225754 196.227829,250.846573 
	C197.487167,250.843765 198.746521,250.840958 200.663666,250.978287 
	C201.107117,250.931473 201.550552,250.884644 202.919571,250.991226 
	C209.294144,250.506668 215.668701,250.022110 222.725006,249.380386 
	C233.052551,244.974411 238.200806,235.447556 233.981049,225.045868 
	C229.889389,214.959946 223.862091,205.659286 218.685242,195.598633 
	C218.435181,195.296906 218.185120,194.995163 217.852768,194.221100 
	C217.852768,194.221100 217.450485,193.960251 217.439713,193.427689 
	C217.009628,192.880814 216.579544,192.333939 216.166489,191.751053 
	C216.166489,191.751053 216.179291,191.712296 215.904968,191.043365 
	C212.731918,185.299011 209.651489,179.501099 206.367889,173.820648 
	C197.603058,158.657913 188.750900,143.545670 179.715042,127.988548 
	C179.715042,127.988548 179.264084,127.831024 179.274384,127.212387 
	C178.540573,125.754395 177.806747,124.296402 176.886124,121.943558 
	C176.641815,121.761444 176.397522,121.579330 176.393509,120.842293 
	C176.262527,119.432045 176.131531,118.021790 175.929596,115.599670 
	C175.872101,103.079689 175.814590,90.559708 175.963440,77.173470 
	C175.884491,75.107124 175.805542,73.040787 175.968475,70.254868 
	C178.638062,68.158882 181.307648,66.062897 184.556015,63.431187 
	C184.332520,60.699028 184.109039,57.966866 183.480652,54.551086 
	C183.337570,54.328224 183.194473,54.105362 183.345490,53.778591 
	C183.345490,53.778591 183.156326,53.532986 183.156326,53.532986 
	C183.156326,53.532986 182.969772,53.782738 182.554504,53.289810 
	C182.398102,53.142525 182.241684,52.995239 182.196426,52.969986 
z"/>
<path fill="#8CD2E1" opacity="1.000000" stroke="none" 
	d="
M65.332619,231.019836 
	C65.299400,230.542465 65.266190,230.065079 65.530914,229.020477 
	C65.909065,227.702454 65.989281,226.951675 66.069489,226.200897 
	C70.450981,218.054291 74.656738,209.807220 79.246391,201.779633 
	C93.980209,176.009216 108.855927,150.319931 124.141991,124.096077 
	C124.777740,122.437325 124.948395,121.281853 125.119064,120.126381 
	C125.173058,119.966942 125.227058,119.807503 125.537979,119.031815 
	C125.853363,102.627670 125.911812,86.839760 125.849182,70.789993 
	C125.214386,70.332787 124.700653,70.137428 124.186928,69.942070 
	C123.975243,69.880623 123.763557,69.819183 123.170364,69.441498 
	C122.578743,68.961067 122.343941,68.909790 122.084457,68.971405 
	C120.822235,67.807671 119.560013,66.643936 118.169815,65.001389 
	C117.986008,64.258255 117.826851,64.094215 117.564377,64.030464 
	C117.379875,63.286175 117.195374,62.541882 117.056129,61.039268 
	C117.075371,59.529846 117.049355,58.778748 117.023346,58.027645 
	C117.046074,57.850994 117.068794,57.674343 117.417694,57.098442 
	C117.858131,56.196590 117.972404,55.693989 118.086670,55.191391 
	C118.575554,54.567402 119.064438,53.943417 120.041069,53.123878 
	C120.831688,52.785477 121.015686,52.549816 121.080795,52.221340 
	C121.080795,52.221340 121.096771,52.092541 121.436874,52.111584 
	C122.207596,51.829952 122.638206,51.529278 123.068810,51.228607 
	C123.068810,51.228603 123.096169,51.088272 123.566589,51.139709 
	C125.376656,51.193703 126.716301,51.196262 128.035736,51.515114 
	C128.027771,52.467670 128.040009,53.103939 127.842529,53.854671 
	C127.328300,54.104359 127.102707,54.321533 126.667038,54.722633 
	C126.176308,54.856655 125.974548,54.888699 125.652512,54.868759 
	C125.321175,54.819515 125.200500,54.925278 124.780426,55.344185 
	C124.124680,55.682377 123.858704,55.810444 123.440308,55.932735 
	C123.064957,56.012058 122.965622,56.173267 122.872620,56.606247 
	C122.755348,56.801907 122.364151,57.036629 122.213348,57.083412 
	C121.891022,57.298214 121.848030,57.494480 121.940277,57.809952 
	C121.947006,57.900909 121.779129,57.972282 121.533829,58.185879 
	C121.401390,59.605255 121.514252,60.811035 121.743759,62.062965 
	C121.860413,62.109116 121.905350,62.355949 121.871796,62.615540 
	C122.133072,63.273087 122.427917,63.671047 122.811401,64.086853 
	C122.900040,64.104706 122.912598,64.285110 122.982208,64.488457 
	C123.233688,64.945679 123.480774,65.072571 124.135765,65.205902 
	C125.605080,65.801842 126.731712,66.264374 127.877815,66.975525 
	C128.424408,67.526588 128.951538,67.829018 129.645203,68.491394 
	C129.910858,69.898209 130.009949,70.945076 129.859375,72.215309 
	C129.783798,73.628685 129.957886,74.818687 130.259033,76.458282 
	C130.302307,81.269737 130.218521,85.631607 129.978195,90.083664 
	C129.772415,90.282791 129.651794,90.436104 129.686920,90.492569 
	C129.805328,90.682953 129.979080,90.838928 130.218369,91.376808 
	C130.246185,92.494118 130.187286,93.242676 129.857117,94.281250 
	C129.764404,97.383270 129.942963,100.195267 130.134033,103.447411 
	C130.133240,105.921623 130.119904,107.955688 129.949203,110.080582 
	C129.896591,110.451279 130.001373,110.731133 130.103653,111.468346 
	C130.523865,118.504715 128.780136,124.566711 125.535973,130.206436 
	C108.019386,160.657715 90.434326,191.069672 72.962502,221.546570 
	C70.619705,225.633224 67.900238,229.763107 68.910400,235.159760 
	C64.431656,236.299591 66.988281,232.054840 65.332619,231.019836 
z"/>
<path fill="#92E1EF" opacity="1.000000" stroke="none" 
	d="
M123.995598,249.999237 
	C116.302666,250.050369 108.609741,250.101501 100.296341,249.864929 
	C99.117966,249.700256 98.560074,249.823303 98.002182,249.946350 
	C97.549141,250.002884 97.096092,250.059418 96.061417,249.800735 
	C94.004333,249.597412 92.528893,249.709305 91.053452,249.821213 
	C90.583046,249.841110 90.112640,249.861008 89.010910,249.608826 
	C86.602364,249.426682 84.825142,249.516617 83.047913,249.606552 
	C78.754128,247.962570 74.460342,246.318604 70.329514,244.090088 
	C71.877182,243.347504 73.261902,243.189484 74.935585,243.279602 
	C76.812714,244.190475 78.400879,244.853195 80.330658,245.753479 
	C87.598289,245.888718 94.524307,245.786392 101.890610,245.722778 
	C117.204620,245.927856 132.078354,246.094223 147.288422,246.470642 
	C150.765961,246.541016 153.907181,246.401337 157.509552,246.210815 
	C162.964157,246.196823 167.957581,246.233658 173.253769,246.478882 
	C175.032181,246.822220 176.507858,246.957138 178.003326,247.405457 
	C178.289963,248.256866 178.556778,248.794876 178.823608,249.332886 
	C179.221863,248.590210 179.620117,247.847534 180.466095,247.083435 
	C183.600449,247.099777 186.287064,247.137543 189.011566,247.542664 
	C191.166702,248.683594 193.283936,249.457169 195.401169,250.230743 
	C172.535675,250.225754 149.670181,250.220764 126.242119,249.916199 
	C125.118233,249.744171 124.556915,249.871704 123.995598,249.999237 
z"/>
<path fill="#91D9E8" opacity="1.000000" stroke="none" 
	d="
M180.658005,52.105251 
	C180.921021,52.244904 181.184021,52.384560 181.829498,52.718834 
	C182.211975,52.913452 182.085251,52.847950 182.085251,52.847950 
	C182.241684,52.995239 182.398102,53.142525 182.761017,53.561249 
	C182.967514,53.832684 183.051392,53.882500 183.051392,53.882500 
	C183.194473,54.105362 183.337570,54.328224 183.660767,55.327042 
	C183.886353,58.724297 183.931793,61.345604 183.977234,63.966908 
	C181.307648,66.062897 178.638062,68.158882 175.649628,70.923386 
	C175.472885,73.741173 175.614990,75.890450 175.757080,78.039726 
	C175.814590,90.559708 175.872101,103.079689 175.929230,116.417152 
	C176.003647,118.622162 176.078430,120.009689 176.153214,121.397217 
	C176.397522,121.579330 176.641815,121.761444 177.052124,122.702766 
	C177.900101,124.918327 178.582092,126.374680 179.264069,127.831024 
	C179.264084,127.831024 179.715042,127.988548 179.833740,128.531906 
	C180.286652,130.869080 181.645264,133.161804 177.797455,132.759003 
	C175.682785,128.354156 173.796906,124.220619 171.972900,119.615936 
	C172.012482,106.344322 172.055588,93.543182 171.925812,80.743805 
	C171.889481,77.159912 171.343765,73.581192 171.018951,69.996178 
	C171.006180,69.992256 171.003510,69.965698 170.794983,69.660400 
	C169.764603,68.621689 168.942764,67.888283 168.120911,67.154861 
	C169.050858,66.753296 169.952347,66.253448 170.917618,65.973854 
	C172.266830,65.583038 173.663635,65.356537 175.022583,65.029938 
	C175.005066,65.000153 175.047073,65.057640 175.349350,65.141891 
	C176.164703,64.931694 176.677780,64.637253 177.537292,64.188446 
	C181.526031,60.105274 181.329239,58.003555 176.718033,54.623257 
	C171.596878,54.131908 166.786713,53.923126 161.835495,53.478962 
	C161.491791,52.732597 161.289154,52.221619 161.502716,51.701103 
	C167.767853,51.529148 173.616791,51.366734 179.465714,51.204323 
	C179.465714,51.204323 179.777588,51.324570 179.897034,51.642879 
	C180.016464,51.961189 180.312958,52.141392 180.312958,52.141392 
	C180.312958,52.141392 180.658005,52.105251 180.658005,52.105251 
z"/>
<path fill="#93D0DE" opacity="1.000000" stroke="none" 
	d="
M178.026230,133.030304 
	C181.645264,133.161804 180.286652,130.869080 179.942947,128.744308 
	C188.750900,143.545670 197.603058,158.657913 206.367889,173.820648 
	C209.651489,179.501099 212.731918,185.299011 215.531586,191.472900 
	C214.137665,192.085388 213.117157,192.268356 211.832840,192.260010 
	C200.388107,172.389236 189.207169,152.709778 178.026230,133.030304 
z"/>
<path fill="#92D5E6" opacity="1.000000" stroke="none" 
	d="
M212.096634,192.451324 
	C213.117157,192.268356 214.137665,192.085388 215.668732,191.807358 
	C216.179291,191.712296 216.166489,191.751053 216.197708,192.029037 
	C216.636108,192.858093 217.043289,193.409180 217.450485,193.960251 
	C217.450485,193.960251 217.852768,194.221100 217.934204,194.645416 
	C218.238724,195.384399 218.461807,195.699081 218.684891,196.013748 
	C223.862091,205.659286 229.889389,214.959946 233.981049,225.045868 
	C238.200806,235.447556 233.052551,244.974411 222.482452,249.168594 
	C222.830338,247.662216 223.420776,246.367630 224.326263,244.964844 
	C230.606018,240.033035 232.519653,233.909027 230.022568,226.682434 
	C228.808121,223.167816 227.139160,219.777130 225.374283,216.492432 
	C221.041626,208.428650 216.533920,200.458893 212.096634,192.451324 
z"/>
<path fill="#8BDAEA" opacity="1.000000" stroke="none" 
	d="
M224.011215,245.073044 
	C223.420776,246.367630 222.830338,247.662216 222.141586,249.247192 
	C215.668701,250.022110 209.294144,250.506668 202.458694,250.552673 
	C201.988556,249.149200 201.979309,248.184296 202.439148,247.173615 
	C206.362762,247.122772 209.842484,247.374451 213.264618,247.038910 
	C216.554276,246.716370 219.784332,245.785934 223.275848,244.965210 
	C223.677795,244.896225 223.844513,244.984634 224.011215,245.073044 
z"/>
<path fill="#69AFC1" opacity="1.000000" stroke="none" 
	d="
M179.222504,50.913956 
	C173.616791,51.366734 167.767853,51.529148 161.131927,51.528450 
	C149.581940,51.309834 138.818939,51.254326 128.055954,51.198822 
	C126.716301,51.196262 125.376656,51.193703 123.636002,51.156803 
	C124.633041,50.788395 126.029991,50.169189 127.429306,50.163811 
	C143.636459,50.101528 159.843964,50.123661 176.051315,50.158661 
	C177.027649,50.160770 178.003326,50.461708 179.222504,50.913956 
z"/>
<path fill="#7EC1D2" opacity="1.000000" stroke="none" 
	d="
M74.646622,243.031464 
	C73.261902,243.189484 71.877182,243.347504 70.245888,243.754517 
	C68.378929,239.944977 66.758545,235.886475 65.235390,231.423889 
	C66.988281,232.054840 64.431656,236.299591 69.068909,235.431732 
	C71.204704,238.000290 72.925659,240.515869 74.646622,243.031464 
z"/>
<path fill="#42718A" opacity="1.000000" stroke="none" 
	d="
M125.970261,71.051849 
	C125.911812,86.839760 125.853363,102.627670 125.591614,118.785065 
	C125.289848,103.403076 125.191368,87.651588 125.320389,71.414825 
	C125.547882,70.929543 125.970261,71.051849 125.970261,71.051849 
z"/>
<path fill="#8BDAEA" opacity="1.000000" stroke="none" 
	d="
M195.814499,250.538666 
	C193.283936,249.457169 191.166702,248.683594 189.467163,247.500732 
	C192.932693,247.126282 195.980530,247.161118 199.072952,247.508301 
	C199.413635,248.826477 199.709747,249.832321 200.005859,250.838165 
	C198.746521,250.840958 197.487167,250.843765 195.814499,250.538666 
z"/>
<path fill="#8BDAEA" opacity="1.000000" stroke="none" 
	d="
M91.280777,250.061493 
	C92.528893,249.709305 94.004333,249.597412 95.727745,249.712128 
	C94.486511,250.059753 92.997307,250.180771 91.280777,250.061493 
z"/>
<path fill="#92E1EF" opacity="1.000000" stroke="none" 
	d="
M200.334763,250.908234 
	C199.709747,249.832321 199.413635,248.826477 199.440002,247.473419 
	C200.498322,247.157272 201.234192,247.188339 201.970062,247.219391 
	C201.979309,248.184296 201.988556,249.149200 201.995911,250.475967 
	C201.550552,250.884644 201.107117,250.931473 200.334763,250.908234 
z"/>
<path fill="#69AFC1" opacity="1.000000" stroke="none" 
	d="
M184.266632,63.699047 
	C183.931793,61.345604 183.886353,58.724297 183.863220,55.668850 
	C184.109039,57.966866 184.332520,60.699028 184.266632,63.699047 
z"/>
<path fill="#69AFC1" opacity="1.000000" stroke="none" 
	d="
M175.860260,77.606598 
	C175.614990,75.890450 175.472885,73.741173 175.528671,71.283173 
	C175.805542,73.040787 175.884491,75.107124 175.860260,77.606598 
z"/>
<path fill="#93D0DE" opacity="1.000000" stroke="none" 
	d="
M179.269226,127.521713 
	C178.582092,126.374680 177.900101,124.918327 177.145523,123.150192 
	C177.806747,124.296402 178.540573,125.754395 179.269226,127.521713 
z"/>
<path fill="#8BDAEA" opacity="1.000000" stroke="none" 
	d="
M83.458008,249.719177 
	C84.825142,249.516617 86.602364,249.426682 88.668175,249.521194 
	C87.260544,249.747681 85.564323,249.789734 83.458008,249.719177 
z"/>
<path fill="#93D0DE" opacity="1.000000" stroke="none" 
	d="
M176.273361,121.119751 
	C176.078430,120.009689 176.003647,118.622162 175.964691,116.923088 
	C176.131531,118.021790 176.262527,119.432045 176.273361,121.119751 
z"/>
<path fill="#42718A" opacity="1.000000" stroke="none" 
	d="
M124.780334,120.264450 
	C124.948395,121.281853 124.777740,122.437325 124.325005,123.810745 
	C124.175827,122.819969 124.308723,121.611244 124.780334,120.264450 
z"/>
<path fill="#8BDAEA" opacity="1.000000" stroke="none" 
	d="
M98.155777,250.122803 
	C98.560074,249.823303 99.117966,249.700256 99.836624,249.765289 
	C99.434708,250.068649 98.872040,250.183945 98.155777,250.122803 
z"/>
<path fill="#8BDAEA" opacity="1.000000" stroke="none" 
	d="
M124.171509,250.128662 
	C124.556915,249.871704 125.118233,249.744171 125.841919,249.807922 
	C125.452003,250.085495 124.899712,250.171799 124.171509,250.128662 
z"/>
<path fill="#69AFC1" opacity="1.000000" stroke="none" 
	d="
M116.798492,58.202602 
	C117.049355,58.778748 117.075371,59.529846 117.039673,60.652351 
	C116.843185,60.141685 116.708420,59.259624 116.798492,58.202602 
z"/>
<path fill="#93D0DE" opacity="1.000000" stroke="none" 
	d="
M217.445099,193.693970 
	C217.043289,193.409180 216.636108,192.858093 216.189178,192.047043 
	C216.579544,192.333939 217.009628,192.880814 217.445099,193.693970 
z"/>
<path fill="#7EC1D2" opacity="1.000000" stroke="none" 
	d="
M65.868492,226.412323 
	C65.989281,226.951675 65.909065,227.702454 65.660278,228.682617 
	C65.550301,228.149246 65.608902,227.386490 65.868492,226.412323 
z"/>
<path fill="#69AFC1" opacity="1.000000" stroke="none" 
	d="
M122.789665,51.225712 
	C122.638206,51.529278 122.207596,51.829952 121.500664,52.123512 
	C121.653069,51.818542 122.081795,51.520679 122.789665,51.225712 
z"/>
<path fill="#69AFC1" opacity="1.000000" stroke="none" 
	d="
M117.838226,55.310226 
	C117.972404,55.693989 117.858131,56.196590 117.533432,56.857655 
	C117.411926,56.487103 117.500854,55.958088 117.838226,55.310226 
z"/>
<path fill="#93D0DE" opacity="1.000000" stroke="none" 
	d="
M218.685059,195.806183 
	C218.461807,195.699081 218.238724,195.384399 217.975342,194.881592 
	C218.185120,194.995163 218.435181,195.296906 218.685059,195.806183 
z"/>
<path fill="#69AFC1" opacity="1.000000" stroke="none" 
	d="
M125.849182,70.789993 
	C125.970261,71.051849 125.547882,70.929543 125.328560,70.943573 
	C124.806320,70.832893 124.547417,70.646912 124.259735,70.170868 
	C124.700653,70.137428 125.214386,70.332787 125.849182,70.789993 
z"/>
<path fill="#69AFC1" opacity="1.000000" stroke="none" 
	d="
M183.198441,53.830544 
	C183.051392,53.882500 182.967514,53.832684 182.968643,53.807709 
	C182.969772,53.782738 183.156326,53.532986 183.156326,53.532986 
	C183.156326,53.532986 183.345490,53.778591 183.198441,53.830544 
z"/>
<path fill="#69AFC1" opacity="1.000000" stroke="none" 
	d="
M117.494576,64.220642 
	C117.826851,64.094215 117.986008,64.258255 118.039566,64.702576 
	C117.731041,64.857712 117.526863,64.700462 117.494576,64.220642 
z"/>
<path fill="#69AFC1" opacity="1.000000" stroke="none" 
	d="
M122.163818,69.160446 
	C122.343941,68.909790 122.578743,68.961067 122.878510,69.286133 
	C122.968170,69.447021 122.581650,69.577477 122.581650,69.577477 
	C122.581650,69.577477 122.243187,69.349480 122.163818,69.160446 
z"/>
<path fill="#69AFC1" opacity="1.000000" stroke="none" 
	d="
M182.140839,52.908966 
	C182.085251,52.847950 182.211975,52.913452 182.212830,52.948105 
	C182.213684,52.982754 182.196426,52.969986 182.140839,52.908966 
z"/>
<path fill="#69AFC1" opacity="1.000000" stroke="none" 
	d="
M120.841812,52.242989 
	C121.015686,52.549816 120.831688,52.785477 120.303398,52.980621 
	C120.121094,52.686726 120.296036,52.430634 120.841812,52.242989 
z"/>
<path fill="#69AFC1" opacity="1.000000" stroke="none" 
	d="
M180.623322,51.918720 
	C180.658005,52.105251 180.312958,52.141392 180.312958,52.141392 
	C180.312958,52.141392 180.016464,51.961189 179.962708,51.796562 
	C180.166565,51.454597 180.393127,51.488014 180.623322,51.918720 
z"/>
<path fill="#010404" opacity="1.000000" stroke="none" 
	d="
M74.935577,243.279602 
	C72.925659,240.515869 71.204704,238.000290 69.325233,235.212723 
	C67.900238,229.763107 70.619705,225.633224 72.962502,221.546570 
	C90.434326,191.069672 108.019386,160.657715 125.535973,130.206436 
	C128.780136,124.566711 130.523865,118.504715 130.229828,111.213089 
	C130.274536,110.330231 130.190552,110.159988 130.106583,109.989754 
	C130.119904,107.955688 130.133240,105.921623 130.296326,103.020370 
	C130.340195,99.432541 130.234283,96.711884 130.128387,93.991234 
	C130.187286,93.242676 130.246185,92.494118 130.340454,91.123520 
	C130.295471,90.332138 130.215088,90.162811 130.134720,89.993484 
	C130.218521,85.631607 130.302307,81.269737 130.417282,76.074234 
	C130.335327,74.157715 130.222183,73.074829 130.109039,71.991943 
	C130.009949,70.945076 129.910858,69.898209 129.621643,68.249664 
	C128.907135,67.340965 128.382736,67.033936 127.858345,66.726906 
	C126.731712,66.264374 125.605080,65.801842 124.056534,65.009270 
	C123.458199,64.430138 123.217529,64.298767 122.912598,64.285110 
	C122.912598,64.285110 122.900040,64.104706 122.769333,63.820217 
	C122.394203,63.142467 122.149773,62.749210 121.905350,62.355949 
	C121.905350,62.355949 121.860413,62.109116 121.765198,61.659424 
	C121.706360,60.130581 121.742744,59.051434 121.779129,57.972282 
	C121.779129,57.972282 121.947006,57.900909 122.100464,57.767662 
	C122.459641,57.466255 122.496384,57.266994 122.364151,57.036629 
	C122.364151,57.036629 122.755348,56.801907 123.034637,56.641327 
	C123.566505,56.382225 123.659439,56.201481 123.592720,55.938515 
	C123.858704,55.810444 124.124680,55.682377 124.895615,55.445885 
	C125.654655,55.314812 125.778725,55.175907 125.772797,54.920742 
	C125.974548,54.888699 126.176308,54.856655 127.131805,54.811680 
	C144.266708,54.834442 160.647873,54.870136 177.029037,54.905827 
	C181.329239,58.003555 181.526031,60.105274 177.226349,64.112213 
	C176.061661,64.479446 175.554367,64.768539 175.047073,65.057632 
	C175.047073,65.057640 175.005066,65.000153 174.553986,64.977081 
	C163.710526,65.131615 153.318146,65.309212 142.925781,65.486816 
	C142.923004,66.127663 142.920242,66.768501 142.917480,67.409348 
	C151.946884,71.290604 161.581802,69.657272 171.003510,69.965698 
	C171.003510,69.965698 171.006180,69.992256 170.976837,70.462517 
	C170.963303,85.575943 170.948746,100.219292 171.035049,114.862045 
	C171.045319,116.605385 171.605652,118.345482 171.911011,120.087082 
	C173.796906,124.220619 175.682785,128.354156 177.797455,132.759003 
	C189.207169,152.709778 200.388107,172.389236 211.832840,192.260010 
	C216.533920,200.458893 221.041626,208.428650 225.374283,216.492432 
	C227.139160,219.777130 228.808121,223.167816 230.022568,226.682434 
	C232.519653,233.909027 230.606018,240.033035 224.326263,244.964844 
	C223.844513,244.984634 223.677795,244.896225 222.852646,245.033539 
	C219.069427,245.557098 215.946930,246.082230 212.819504,246.113342 
	C199.530807,246.245544 186.240646,246.231262 172.951019,246.270477 
	C167.957581,246.233658 162.964157,246.196823 157.061050,246.102844 
	C153.084946,246.117325 150.018524,246.188950 146.952087,246.260590 
	C132.078354,246.094223 117.204620,245.927856 101.484756,245.548950 
	C93.755440,245.396255 86.872238,245.456100 79.989044,245.515930 
	C78.400879,244.853195 76.812714,244.190475 74.935577,243.279602 
M198.780701,186.469345 
	C196.585449,182.637894 194.584244,178.672409 192.083313,175.052124 
	C191.274094,173.880737 188.981491,172.802673 187.664368,173.081985 
	C183.055115,174.059448 178.575485,175.648117 173.285446,176.983551 
	C166.695389,179.019775 160.180557,181.375443 153.482422,182.952682 
	C150.302963,183.701355 146.585983,183.641083 143.439758,182.768021 
	C135.467026,180.555588 127.679276,177.676544 119.372719,174.528030 
	C117.461792,174.043274 115.547554,173.180191 113.641022,173.196869 
	C112.190460,173.209549 110.063614,173.931717 109.407753,175.034256 
	C100.039932,190.782303 90.817558,206.617935 81.686211,222.504929 
	C78.779007,227.562973 79.920425,233.195190 84.645966,236.473038 
	C101.669579,236.724823 118.693199,236.976608 136.424805,237.753082 
	C161.934174,237.817566 187.443558,237.886749 212.952957,237.924774 
	C213.756470,237.925964 214.560486,237.605743 215.876480,237.115738 
	C221.147934,233.925873 222.714294,228.448181 219.466324,222.673218 
	C212.766632,210.761002 205.806458,198.995285 198.780701,186.469345 
M155.966263,152.612640 
	C154.013260,149.338547 152.060242,146.064453 150.107239,142.790344 
	C149.863815,150.972382 144.680969,154.007721 137.595886,156.477936 
	C146.803848,157.748352 148.839630,164.394836 150.548492,171.732788 
	C151.269760,164.220596 155.477173,159.361801 161.625519,156.132553 
	C159.507172,154.756424 158.092087,153.837158 155.966263,152.612640 
z"/>
<path fill="#92E1EF" opacity="1.000000" stroke="none" 
	d="
M128.035736,51.515114 
	C138.818939,51.254326 149.581940,51.309834 160.715729,51.537987 
	C161.289154,52.221619 161.491791,52.732597 161.370056,53.521420 
	C150.047882,53.779575 139.050064,53.759892 128.052246,53.740208 
	C128.040009,53.103939 128.027771,52.467670 128.035736,51.515114 
z"/>
<path fill="#69AFC1" opacity="1.000000" stroke="none" 
	d="
M127.842529,53.854671 
	C139.050064,53.759892 150.047882,53.779575 161.511139,53.756802 
	C166.786713,53.923126 171.596878,54.131908 176.718033,54.623257 
	C160.647873,54.870136 144.266708,54.834442 127.420776,54.709702 
	C127.102707,54.321533 127.328300,54.104359 127.842529,53.854671 
z"/>
<path fill="#7EC1D2" opacity="1.000000" stroke="none" 
	d="
M129.857117,94.281250 
	C130.234283,96.711884 130.340195,99.432541 130.283813,102.580231 
	C129.942963,100.195267 129.764404,97.383270 129.857117,94.281250 
z"/>
<path fill="#69AFC1" opacity="1.000000" stroke="none" 
	d="
M121.533829,58.185879 
	C121.742744,59.051434 121.706360,60.130581 121.648544,61.613274 
	C121.514252,60.811035 121.401390,59.605255 121.533829,58.185879 
z"/>
<path fill="#7EC1D2" opacity="1.000000" stroke="none" 
	d="
M129.859375,72.215309 
	C130.222183,73.074829 130.335327,74.157715 130.290207,75.624649 
	C129.957886,74.818687 129.783798,73.628685 129.859375,72.215309 
z"/>
<path fill="#69AFC1" opacity="1.000000" stroke="none" 
	d="
M127.877815,66.975525 
	C128.382736,67.033936 128.907135,67.340965 129.455093,67.889725 
	C128.951538,67.829018 128.424408,67.526588 127.877815,66.975525 
z"/>
<path fill="#69AFC1" opacity="1.000000" stroke="none" 
	d="
M121.871788,62.615540 
	C122.149773,62.749210 122.394203,63.142467 122.680695,63.802368 
	C122.427917,63.671047 122.133072,63.273087 121.871788,62.615540 
z"/>
<path fill="#7EC1D2" opacity="1.000000" stroke="none" 
	d="
M129.949203,110.080582 
	C130.190552,110.159988 130.274536,110.330231 130.232330,110.755722 
	C130.001373,110.731133 129.896591,110.451279 129.949203,110.080582 
z"/>
<path fill="#69AFC1" opacity="1.000000" stroke="none" 
	d="
M125.652512,54.868759 
	C125.778725,55.175907 125.654655,55.314812 125.285393,55.235756 
	C125.200500,54.925278 125.321175,54.819515 125.652512,54.868759 
z"/>
<path fill="#69AFC1" opacity="1.000000" stroke="none" 
	d="
M123.440308,55.932735 
	C123.659439,56.201481 123.566505,56.382225 123.151909,56.445671 
	C122.965622,56.173267 123.064957,56.012058 123.440308,55.932735 
z"/>
<path fill="#69AFC1" opacity="1.000000" stroke="none" 
	d="
M122.213348,57.083412 
	C122.496384,57.266994 122.459641,57.466255 122.093735,57.676701 
	C121.848030,57.494480 121.891022,57.298214 122.213348,57.083412 
z"/>
<path fill="#69AFC1" opacity="1.000000" stroke="none" 
	d="
M122.982208,64.488457 
	C123.217529,64.298767 123.458199,64.430138 123.713852,64.875854 
	C123.480774,65.072571 123.233688,64.945679 122.982208,64.488457 
z"/>
<path fill="#7EC1D2" opacity="1.000000" stroke="none" 
	d="
M129.978195,90.083664 
	C130.215088,90.162811 130.295471,90.332138 130.253754,90.754761 
	C129.979080,90.838928 129.805328,90.682953 129.686920,90.492569 
	C129.651794,90.436104 129.772415,90.282791 129.978195,90.083664 
z"/>
<path fill="#69AFC1" opacity="1.000000" stroke="none" 
	d="
M173.253769,246.478897 
	C186.240646,246.231262 199.530807,246.245544 212.819504,246.113342 
	C215.946930,246.082230 219.069427,245.557098 222.617401,245.190918 
	C219.784332,245.785934 216.554276,246.716370 213.264618,247.038910 
	C209.842484,247.374451 206.362762,247.122772 202.439148,247.173615 
	C201.234192,247.188339 200.498322,247.157272 199.395416,247.161072 
	C195.980530,247.161118 192.932693,247.126282 189.429260,247.133377 
	C186.287064,247.137543 183.600449,247.099777 180.127533,247.049957 
	C178.888657,247.055923 178.436096,247.073975 177.983521,247.092041 
	C176.507858,246.957138 175.032181,246.822220 173.253769,246.478897 
z"/>
<path fill="#69AFC1" opacity="1.000000" stroke="none" 
	d="
M80.330658,245.753479 
	C86.872238,245.456100 93.755440,245.396255 101.044479,245.510239 
	C94.524307,245.786392 87.598289,245.888718 80.330658,245.753479 
z"/>
<path fill="#69AFC1" opacity="1.000000" stroke="none" 
	d="
M147.288422,246.470642 
	C150.018524,246.188950 153.084946,246.117325 156.599884,246.153671 
	C153.907181,246.401337 150.765961,246.541016 147.288422,246.470642 
z"/>
<path fill="#8BDAEA" opacity="1.000000" stroke="none" 
	d="
M178.003326,247.405457 
	C178.436096,247.073975 178.888657,247.055923 179.679794,247.071365 
	C179.620117,247.847534 179.221863,248.590210 178.823608,249.332886 
	C178.556778,248.794876 178.289963,248.256866 178.003326,247.405457 
z"/>
<path fill="#42718A" opacity="1.000000" stroke="none" 
	d="
M170.794983,69.660400 
	C161.581802,69.657272 151.946884,71.290604 142.917480,67.409348 
	C142.920242,66.768501 142.923004,66.127663 142.925781,65.486816 
	C153.318146,65.309212 163.710526,65.131615 174.571503,65.006866 
	C173.663635,65.356537 172.266830,65.583038 170.917618,65.973854 
	C169.952347,66.253448 169.050858,66.753296 168.120911,67.154861 
	C168.942764,67.888283 169.764603,68.621689 170.794983,69.660400 
M163.720108,66.370705 
	C160.804810,65.790939 157.954254,65.508148 155.598694,67.994392 
	C158.051682,68.846603 160.444672,69.081734 162.818802,68.957291 
	C163.352722,68.929306 163.820816,67.645645 163.720108,66.370705 
z"/>
<path fill="#42718A" opacity="1.000000" stroke="none" 
	d="
M171.972900,119.615936 
	C171.605652,118.345482 171.045319,116.605385 171.035049,114.862045 
	C170.948746,100.219292 170.963303,85.575943 170.989594,70.466438 
	C171.343765,73.581192 171.889481,77.159912 171.925812,80.743805 
	C172.055588,93.543182 172.012482,106.344322 171.972900,119.615936 
z"/>
<path fill="#42718A" opacity="1.000000" stroke="none" 
	d="
M175.349350,65.141884 
	C175.554367,64.768539 176.061661,64.479446 176.879913,64.266579 
	C176.677780,64.637253 176.164703,64.931694 175.349350,65.141884 
z"/>
<path fill="#8DDCEB" opacity="1.000000" stroke="none" 
	d="
M135.716812,237.228394 
	C118.693199,236.976608 101.669579,236.724823 84.283440,235.883484 
	C84.437302,234.205734 84.953682,233.117523 85.726593,232.271698 
	C86.152382,232.677505 86.321632,232.840958 86.499695,233.002960 
	C86.508507,233.001541 86.565804,232.988403 86.897339,233.066895 
	C87.453186,233.109772 87.677505,233.074158 88.376457,233.053009 
	C105.940361,233.063217 123.029633,233.058960 140.309143,233.113739 
	C140.499374,233.172760 140.880371,233.056381 141.227997,233.075714 
	C142.036850,233.138458 142.498077,233.181839 143.067657,233.356873 
	C143.464630,233.403351 143.753235,233.318207 144.319214,233.170959 
	C144.785690,233.097137 144.974808,233.085388 145.330322,233.137466 
	C145.496719,233.201279 145.830795,233.077042 146.117310,233.098267 
	C146.590332,233.163132 146.776825,233.206772 147.305710,233.457703 
	C151.111359,233.541641 154.574631,233.418289 158.338120,233.224487 
	C158.843430,233.139496 159.048508,233.124939 159.376862,233.181610 
	C159.500122,233.252838 159.747665,233.112137 160.055145,233.134644 
	C160.562561,233.204849 160.762482,233.252548 161.315979,233.517014 
	C176.688156,233.843323 191.706680,233.969070 206.725479,234.029144 
	C207.828232,234.033554 208.932877,233.563324 210.344116,233.238739 
	C210.862213,233.150833 211.072815,233.137955 211.389877,233.200470 
	C211.496338,233.275879 211.711411,233.128113 212.178375,233.151917 
	C213.265732,233.124710 213.886124,233.073730 214.624481,233.328857 
	C214.831757,234.721329 214.921097,235.807678 214.542664,236.932236 
	C210.746887,236.987381 207.418930,237.010025 204.090942,237.020355 
	C181.299561,237.091156 158.508194,237.159348 135.716812,237.228394 
z"/>
<path fill="#9EDEE1" opacity="1.000000" stroke="none" 
	d="
M119.817444,175.064468 
	C127.679276,177.676544 135.467026,180.555588 143.439758,182.768021 
	C146.585983,183.641083 150.302963,183.701355 153.482422,182.952682 
	C160.180557,181.375443 166.695389,179.019775 174.047943,177.025146 
	C176.204346,177.923477 177.598251,178.780197 178.677979,179.833832 
	C171.576050,182.266678 164.788330,184.502625 156.423309,187.258163 
	C162.836426,189.838104 167.965393,191.901459 172.844513,194.001053 
	C172.648239,195.129074 172.701813,196.220825 172.412750,197.330414 
	C168.833115,196.262711 165.592957,195.186539 162.359665,194.090134 
	C146.249420,188.627182 130.140976,183.158920 114.133614,177.374420 
	C116.096031,176.392365 117.956734,175.728424 119.817444,175.064468 
z"/>
<path fill="#8FD2DD" opacity="1.000000" stroke="none" 
	d="
M119.595078,174.796249 
	C117.956734,175.728424 116.096031,176.392365 113.761505,177.407135 
	C112.923500,178.093933 112.447067,178.365341 112.211365,178.775192 
	C103.291435,194.285721 94.304558,209.759506 85.619987,225.401077 
	C84.670547,227.111084 85.477676,229.796387 85.470070,232.029327 
	C84.953682,233.117523 84.437302,234.205734 83.967255,235.604309 
	C79.920425,233.195190 78.779007,227.562973 81.686211,222.504929 
	C90.817558,206.617935 100.039932,190.782303 109.407753,175.034256 
	C110.063614,173.931717 112.190460,173.209549 113.641022,173.196869 
	C115.547554,173.180191 117.461792,174.043274 119.595078,174.796249 
z"/>
<path fill="#8ACCD8" opacity="1.000000" stroke="none" 
	d="
M215.010452,236.894028 
	C214.921097,235.807678 214.831757,234.721329 214.893982,233.072357 
	C217.391739,229.587830 216.548279,226.836502 214.870636,223.899811 
	C208.624283,212.965759 202.501175,201.961304 196.623291,190.892242 
	C197.594330,189.590591 198.273895,188.379944 198.953461,187.169312 
	C205.806458,198.995285 212.766632,210.761002 219.466324,222.673218 
	C222.714294,228.448181 221.147934,233.925873 215.559753,237.121796 
	C215.243011,237.127838 215.010452,236.894028 215.010452,236.894028 
z"/>
<path fill="#9FE1DF" opacity="1.000000" stroke="none" 
	d="
M156.321625,152.765259 
	C158.092087,153.837158 159.507172,154.756424 161.625519,156.132553 
	C155.477173,159.361801 151.269760,164.220596 150.548492,171.732788 
	C148.839630,164.394836 146.803848,157.748352 137.595886,156.477936 
	C144.680969,154.007721 149.863815,150.972382 150.107239,142.790344 
	C152.060242,146.064453 154.013260,149.338547 156.321625,152.765259 
M152.285965,156.467194 
	C152.438141,156.510422 152.595535,156.600037 152.741028,156.583710 
	C152.883530,156.567719 153.013947,156.443848 153.149658,156.367340 
	C152.436310,155.711792 151.722977,155.056244 151.009628,154.400696 
	C150.782501,154.700974 150.555389,155.001251 150.328262,155.301529 
	C150.854630,155.577713 151.380981,155.853897 152.285965,156.467194 
z"/>
<path fill="#91CBD6" opacity="1.000000" stroke="none" 
	d="
M198.867081,186.819336 
	C198.273895,188.379944 197.594330,189.590591 196.433838,190.594406 
	C195.096176,189.002060 194.129425,187.671829 193.400665,186.221985 
	C188.819946,177.108765 188.837448,177.099976 178.992157,179.636917 
	C177.598251,178.780197 176.204346,177.923477 174.428528,177.035690 
	C178.575485,175.648117 183.055115,174.059448 187.664368,173.081985 
	C188.981491,172.802673 191.274094,173.880737 192.083313,175.052124 
	C194.584244,178.672409 196.585449,182.637894 198.867081,186.819336 
z"/>
<path fill="#2E7587" opacity="1.000000" stroke="none" 
	d="
M214.542664,236.932236 
	C215.010452,236.894028 215.243011,237.127838 215.303635,237.281586 
	C214.560486,237.605743 213.756470,237.925964 212.952957,237.924774 
	C187.443558,237.886749 161.934174,237.817566 136.070801,237.490738 
	C158.508194,237.159348 181.299561,237.091156 204.090942,237.020355 
	C207.418930,237.010025 210.746887,236.987381 214.542664,236.932236 
z"/>
<path fill="#69AFC1" opacity="1.000000" stroke="none" 
	d="
M164.019653,66.655365 
	C163.820816,67.645645 163.352722,68.929306 162.818802,68.957291 
	C160.444672,69.081734 158.051682,68.846603 155.598694,67.994392 
	C157.954254,65.508148 160.804810,65.790939 164.019653,66.655365 
z"/>
<path fill="#010202" opacity="1.000000" stroke="none" 
	d="
M178.677979,179.833832 
	C188.837448,177.099976 188.819946,177.108765 193.400665,186.221985 
	C194.129425,187.671829 195.096176,189.002060 196.142334,190.685425 
	C202.501175,201.961304 208.624283,212.965759 214.870636,223.899811 
	C216.548279,226.836502 217.391739,229.587830 214.776047,232.766251 
	C213.886124,233.073730 213.265732,233.124710 212.201477,232.972656 
	C211.599548,232.888107 211.441483,233.006577 211.283417,233.125061 
	C211.072815,233.137955 210.862213,233.150833 209.884094,233.129761 
	C193.065201,233.163940 177.013794,233.232086 160.962402,233.300247 
	C160.762482,233.252548 160.562561,233.204849 160.063232,232.954590 
	C159.593750,232.871490 159.423676,232.990936 159.253586,233.110397 
	C159.048508,233.124939 158.843430,233.139496 157.887848,233.113464 
	C153.745987,233.132050 150.354660,233.191223 146.963318,233.250397 
	C146.776825,233.206772 146.590332,233.163132 146.091782,232.919205 
	C145.574463,232.837158 145.369202,232.955414 145.163925,233.073654 
	C144.974808,233.085388 144.785690,233.097137 144.049149,233.083603 
	C143.320938,233.113968 143.140137,233.169601 142.959320,233.225235 
	C142.498077,233.181839 142.036850,233.138458 141.182922,232.898956 
	C140.566467,232.820145 140.342682,232.937424 140.118912,233.054703 
	C123.029633,233.058960 105.940361,233.063217 88.217651,232.834961 
	C87.252945,232.697189 86.921661,232.791916 86.515961,232.874237 
	C86.441559,232.861832 86.490891,233.004395 86.490891,233.004395 
	C86.321632,232.840958 86.152382,232.677505 85.726601,232.271698 
	C85.477676,229.796387 84.670547,227.111084 85.619987,225.401077 
	C94.304558,209.759506 103.291435,194.285721 112.211365,178.775192 
	C112.447067,178.365341 112.923500,178.093933 113.659790,177.725250 
	C130.140976,183.158920 146.249420,188.627182 162.359665,194.090134 
	C165.592957,195.186539 168.833115,196.262711 172.727173,197.624878 
	C177.265182,197.923462 181.040619,203.273361 186.491379,197.942001 
	C181.168777,196.361877 177.131577,195.163345 173.094376,193.964813 
	C167.965393,191.901459 162.836426,189.838104 156.423309,187.258163 
	C164.788330,184.502625 171.576050,182.266678 178.677979,179.833832 
z"/>
<path fill="#69AFC1" opacity="1.000000" stroke="none" 
	d="
M161.315979,233.517014 
	C177.013794,233.232086 193.065201,233.163940 209.576614,233.204773 
	C208.932877,233.563324 207.828232,234.033554 206.725479,234.029144 
	C191.706680,233.969070 176.688156,233.843323 161.315979,233.517014 
z"/>
<path fill="#69AFC1" opacity="1.000000" stroke="none" 
	d="
M147.305710,233.457703 
	C150.354660,233.191223 153.745987,233.132050 157.587616,233.183914 
	C154.574631,233.418289 151.111359,233.541641 147.305710,233.457703 
z"/>
<path fill="#69AFC1" opacity="1.000000" stroke="none" 
	d="
M140.309143,233.113739 
	C140.342682,232.937424 140.566467,232.820145 140.835312,232.879623 
	C140.880371,233.056381 140.499374,233.172760 140.309143,233.113739 
z"/>
<path fill="#8FD2DD" opacity="1.000000" stroke="none" 
	d="
M86.499695,233.002960 
	C86.490891,233.004395 86.441559,232.861832 86.501190,232.896790 
	C86.560814,232.931763 86.565804,232.988403 86.565804,232.988403 
	C86.565804,232.988403 86.508507,233.001541 86.499695,233.002960 
z"/>
<path fill="#69AFC1" opacity="1.000000" stroke="none" 
	d="
M86.897339,233.066895 
	C86.565804,232.988403 86.560814,232.931763 86.575592,232.909210 
	C86.921661,232.791916 87.252945,232.697189 87.743027,232.820496 
	C87.677505,233.074158 87.453186,233.109772 86.897339,233.066895 
z"/>
<path fill="#69AFC1" opacity="1.000000" stroke="none" 
	d="
M143.067657,233.356873 
	C143.140137,233.169601 143.320938,233.113968 143.771790,233.145691 
	C143.753235,233.318207 143.464630,233.403351 143.067657,233.356873 
z"/>
<path fill="#69AFC1" opacity="1.000000" stroke="none" 
	d="
M211.389877,233.200470 
	C211.441483,233.006577 211.599548,232.888107 211.734512,232.948868 
	C211.711411,233.128113 211.496338,233.275879 211.389877,233.200470 
z"/>
<path fill="#69AFC1" opacity="1.000000" stroke="none" 
	d="
M159.376862,233.181610 
	C159.423676,232.990936 159.593750,232.871490 159.755753,232.932083 
	C159.747665,233.112137 159.500122,233.252838 159.376862,233.181610 
z"/>
<path fill="#69AFC1" opacity="1.000000" stroke="none" 
	d="
M145.330322,233.137466 
	C145.369202,232.955414 145.574463,232.837158 145.805267,232.897980 
	C145.830795,233.077042 145.496719,233.201279 145.330322,233.137466 
z"/>
<path fill="#93D0DE" opacity="1.000000" stroke="none" 
	d="
M172.844513,194.001068 
	C177.131577,195.163345 181.168777,196.361877 186.491379,197.942001 
	C181.040619,203.273361 177.265182,197.923462 173.069824,197.607056 
	C172.701813,196.220825 172.648239,195.129074 172.844513,194.001068 
z"/>
<path fill="#42718A" opacity="1.000000" stroke="none" 
	d="
M152.096649,156.298645 
	C151.380981,155.853897 150.854630,155.577713 150.328262,155.301529 
	C150.555389,155.001251 150.782501,154.700974 151.009628,154.400696 
	C151.722977,155.056244 152.436310,155.711792 153.149658,156.367340 
	C153.013947,156.443848 152.883530,156.567719 152.741028,156.583710 
	C152.595535,156.600037 152.438141,156.510422 152.096649,156.298645 
z"/>
</svg>
